# xmcd CD database file
#
# Track frame offsets:
#	150
#	10877
#	29910
#	46234
#	67052
#	82428
#	96691
#	115151
#	127836
#	144373
#	161515
#	177644
#	195646
#	214829
#	232188
#
# Disc length: 3307 seconds
#
# Revision: 6
# Processed by: cddbd v1.5.1PL0 Copyright (c) Steve Scherf et al.
# Submitted via: CDex 1.51
#
DISCID=e60ce90f
DTITLE=Laura Fygi - Watch what Happens when Lauta Fygi meets Michel Legrand
DYEAR=1997
DGENRE=Jazz
TTITLE0=Where's The Love
TTITLE1=The First Time
TTITLE2=You Had To Be There
TTITLE3=The Summer Knows
TTITLE4=Watch What Happens
TTITLE5=Et Si Demain
TTITLE6=The Windmills Of Your Mind
TTITLE7=I Will Wait For You
TTITLE8=Once Upon A Summertime
TTITLE9=What Are You Doing The Rest Of Your Life
TTITLE10=How Do You Keep The Music Playing
TTITLE11=Summer Me, Winter Me
TTITLE12=The Way He Makes Me Feel
TTITLE13=Ask Yourself Why
TTITLE14=Rachel
EXTD=YEAR: 1997
EXTT0=
EXTT1=
EXTT2=
EXTT3=
EXTT4=
EXTT5=
EXTT6=
EXTT7=
EXTT8=
EXTT9=
EXTT10=
EXTT11=
EXTT12=
EXTT13=
EXTT14=
PLAYORDER=
